<svg xmlns="http://www.w3.org/2000/svg" width="32" height="32" viewBox="0 0 32 32">
    <g fill="none" fill-rule="evenodd">
        <g fill="#383838">
            <g>
                <g>
                    <path d="M25.333 26c0 1.105-.896 2-2 2s-2-.895-2-2 .896-2 2-2 2 .895 2 2zM12 26c0 1.105-.896 2-2 2s-2-.895-2-2 .896-2 2-2 2 .895 2 2zm9.843-7.333H11.685l-2.182-8h16.34l-4 8zm6.268-9.403C27.62 8.472 26.773 8 25.843 8H8.776l-.823-3.017C7.795 4.403 7.268 4 6.667 4H4c-.737 0-1.333.597-1.333 1.333S3.263 6.667 4 6.667h1.648L9.38 20.35c.159.58.685.982 1.287.982h12c.505 0 .966-.285 1.193-.737l4.368-8.737c.416-.834.372-1.803-.117-2.595z" transform="translate(-272 -16) translate(152 16) translate(120)"/>
                </g>
            </g>
        </g>
    </g>
</svg>
