<svg xmlns="http://www.w3.org/2000/svg" width="32" height="32" viewBox="0 0 32 32">
    <g fill="none" fill-rule="evenodd">
        <g fill="#383838">
            <g>
                <g>
                    <path d="M25.333 26.667c0 .736-.596 1.333-1.333 1.333s-1.333-.597-1.333-1.333C22.667 22.99 19.676 20 16 20c-3.676 0-6.667 2.99-6.667 6.667C9.333 27.403 8.737 28 8 28s-1.333-.597-1.333-1.333c0-5.147 4.188-9.334 9.333-9.334 5.145 0 9.333 4.187 9.333 9.334M16 6.667c1.47 0 2.667 1.196 2.667 2.666C18.667 10.804 17.47 12 16 12c-1.47 0-2.667-1.196-2.667-2.667 0-1.47 1.196-2.666 2.667-2.666m0 8c2.941 0 5.333-2.392 5.333-5.334C21.333 6.392 18.941 4 16 4c-2.941 0-5.333 2.392-5.333 5.333 0 2.942 2.392 5.334 5.333 5.334" transform="translate(-232 -16) translate(152 16) translate(80)"/>
                </g>
            </g>
        </g>
    </g>
</svg>
