<svg xmlns="http://www.w3.org/2000/svg" width="20" height="20" viewBox="0 0 20 20">
    <g fill="none" fill-rule="evenodd">
        <g fill="#0697DB">
            <g>
                <path d="M5.5 3.333c-1.195 0-2.167.972-2.167 2.167 0 6.157 5.01 11.167 11.167 11.167 1.194 0 2.167-.972 2.167-2.167 0-.092-.006-.183-.018-.273l-3.85-.884-.237.454c-.38.726-.655 1.252-1.357.97C8.45 13.8 6.201 11.55 5.222 8.762c-.298-.655.269-.951.987-1.326.146-.077.304-.16.448-.234L5.773 3.35c-.092-.012-.182-.018-.273-.018m9 15c-7.077 0-12.833-5.756-12.833-12.833 0-2.114 1.719-3.833 3.833-3.833.217 0 .43.018.638.054.203.032.406.084.605.152.27.095.475.322.539.602l1.14 4.97c.064.273-.015.56-.21.763-.114.119-.116.121-1.15.662.837 1.812 2.291 3.26 4.066 4.07.542-1.035.545-1.038.664-1.152.203-.195.491-.27.763-.21l4.97 1.14c.28.065.508.268.6.539.07.196.12.4.155.609.035.206.053.419.053.634 0 2.114-1.72 3.833-3.833 3.833" transform="translate(-8 -18) translate(8 18)"/>
            </g>
        </g>
    </g>
</svg>
