<svg xmlns="http://www.w3.org/2000/svg" width="128" height="129" viewBox="0 0 128 129">
    <g fill="none" fill-rule="evenodd">
        <g fill="#FFF">
            <g>
                <g>
                    <path d="M64 58.664c-4.41 0-8-3.59-8-8s3.59-8 8-8 8 3.59 8 8-3.59 8-8 8m0-26.667c-10.293 0-18.667 8.374-18.667 18.667 0 10.293 8.374 18.667 18.667 18.667 10.293 0 18.667-8.374 18.667-18.667 0-10.293-8.374-18.667-18.667-18.667m0 72.782c-8.933-8.448-32-32.166-32-51.862 0-17.413 14.352-31.584 32-31.584s32 14.171 32 31.584c0 19.696-23.067 43.414-32 51.862m0-94.112c-23.525 0-42.667 18.949-42.667 42.25 0 29.2 37.595 61.755 39.195 63.126 1.003.858 2.235 1.29 3.472 1.29s2.47-.432 3.472-1.29c1.6-1.371 39.195-33.926 39.195-63.126 0-23.301-19.142-42.25-42.667-42.25" transform="translate(0 -2446) translate(0 2397) translate(0 49.358)"/>
                </g>
            </g>
        </g>
    </g>
</svg>
