<svg xmlns="http://www.w3.org/2000/svg" width="128" height="128" viewBox="0 0 128 128">
    <g fill="none" fill-rule="evenodd">
        <g fill="#FFF">
            <g>
                <g>
                    <path d="M33.262 113.414c.659-1.931 1.487-4.366 2.34-6.88 2.583-7.618 9.72-12.736 17.759-12.736h18.39c10.339 0 18.75 8.41 18.75 18.75v1.668c-17.253 2.948-39.729 2.847-57.239-.802zm-21.82-95.126c3.537-3.518 8.23-5.455 13.22-5.455h.01c5.01.002 9.72 1.957 13.26 5.504l7.07 7.081v12.619s-12.28-14.321-12.348-14.389c-2.125-2.125-4.95-3.295-7.955-3.295s-5.83 1.17-7.955 3.295l-2.612 2.612-5.186-5.327 2.496-2.645zm15.834 22.753c-.578-1.019-1.598-1.708-2.758-1.865-1.16-.157-2.327.237-3.155 1.064l-7.46 7.46c-1.462 1.463-3.84 1.463-5.303 0-1.465-1.464-1.465-3.836 0-5.301L22.048 28.95c.708-.708 1.65-1.098 2.651-1.098.962 0 1.868.36 2.566 1.015l21.487 25.068v21.113c0 2.07 1.679 3.75 3.75 3.75h7.75v7.5H53.36c-11.255 0-21.246 7.164-24.862 17.826-.97 2.86-1.875 5.52-2.548 7.493-2.396-.685-4.797-1.476-7.1-2.374l-.04-.015c.49-1.441.439-1.406 2.982-8.73 6.98-20.098 14.893-42.878 5.483-59.458zM64 123.797c15.8 0 33.58-1.88 48.384-7.765 9.915-3.937 14.169-7.987 14.495-8.31 1.476-1.453 1.496-3.828.043-5.304-1.445-1.469-3.802-1.495-5.284-.062l-.04.036c-.354.32-2.985 2.604-8.599 5.214-.033-34.676.075-32.754-.094-34.767 3.435 1.646 7.594 4.678 7.594 9.709 0 2.071 1.679 3.75 3.75 3.75 2.07 0 3.75-1.679 3.75-3.75v-26.25c0-8.27-6.729-15-15-15-6.665 0-12.325 4.371-14.273 10.396-3.593-1.85-7.665-2.895-11.976-2.895H54.226l-1.725-2.013v-22.92c0-.993-.394-1.945-1.096-2.648l-8.165-8.18c-4.956-4.965-11.55-7.702-18.566-7.705h-.011c-7.012 0-13.604 2.73-18.562 7.689l-.076.078-5 5.3c-1.38 1.462-1.361 3.75.04 5.19l7.764 7.974-5.532 5.531c-4.396 4.396-4.396 11.512 0 15.909 4.386 4.386 11.523 4.386 15.908 0l3.56-3.559c4.138 13.483-2.302 32.024-8.057 48.594-2.248 6.473-2.602 7.597-2.752 8.037-3.86-2.098-5.571-3.7-5.597-3.722-1.478-1.43-3.835-1.405-5.28.064-1.452 1.477-1.433 3.85.044 5.303.72.716 1.783 1.515 2.619 2.096 15.547 10.984 41.197 13.98 60.26 13.98zm15.25-48.749v-18.75h7.5c10.338 0 18.75 8.412 18.75 18.75v35.508c-2.181.723-4.677 1.447-7.5 2.126v-.135c0-14.474-11.776-26.25-26.25-26.25h-4v-7.5h7.75c2.071.001 3.75-1.678 3.75-3.749zm-23-18.75h15.5v15h-15.5v-15zm54.312 7.712c-1.267-2.722-2.987-5.192-5.062-7.312v-.4c0-4.135 3.364-7.5 7.5-7.5 4.135 0 7.5 3.365 7.5 7.5v12.356c-.569-.416-1.169-.817-1.799-1.201-3.435-2.093-6.867-3.111-8.139-3.443z" transform="translate(-896 -2585) translate(0 2537) translate(896 48)"/>
                </g>
            </g>
        </g>
    </g>
</svg>
