<svg xmlns="http://www.w3.org/2000/svg" width="24" height="24" viewBox="0 0 24 24">
    <g fill="none" fill-rule="evenodd">
        <g fill="#FFF">
            <g>
                <g>
                    <g>
                        <g>
                            <path d="M23.882 5.3c-1.103-1.104-2.898-1.104-4 0l-.29.288c-.052-.06-.106-.119-.163-.176l-.882-.882c-.057-.057-.116-.111-.176-.164l.288-.288c1.103-1.104 1.103-2.898 0-4.002L18.583 0l-.993.992.077.077c.556.556.556 1.46 0 2.016l-.559.559c-.362-.119-.745-.181-1.137-.181-.973 0-1.887.379-2.575 1.067-.597.596-.942 1.35-1.037 2.129l-1.513-1.513c-1.04-1.04-2.423-1.614-3.895-1.614-1.47 0-2.854.573-3.894 1.614L1.572 6.63l4.331 4.331-2.322 2.322c-1.058 1.059-1.755 2.397-2.014 3.871-.23 1.31-.1 2.637.376 3.868L0 22.966l.992.993 1.944-1.943c.835.323 1.714.487 2.602.487.42 0 .844-.037 1.265-.111 1.474-.26 2.813-.956 3.871-2.015l2.322-2.322 4.332 4.332 1.485-1.485c1.04-1.04 1.613-2.423 1.613-3.895 0-1.47-.573-2.854-1.613-3.894L17.302 11.6c.803-.098 1.546-.457 2.127-1.038.688-.688 1.067-1.603 1.067-2.575 0-.393-.063-.775-.181-1.137l.559-.56c.555-.555 1.46-.555 2.016 0l.076.077.993-.992-.077-.077zM4.05 6.137c.775-.775 1.806-1.202 2.902-1.202 1.097 0 2.127.427 2.902 1.202l3.488 3.487-1.272 1.273c-.567.567-1.321.879-2.123.879-.802 0-1.556-.312-2.123-.88L3.557 6.632l.492-.493zm5.897 7.042c.318 0 .63-.033.935-.099-.298 1.386.077 2.889 1.125 3.98l-.683.683-5.108-5.108.682-.682c.824.791 1.903 1.226 3.05 1.226zm-6.64 7.473c-.487-1.178-.564-2.46-.267-3.656l3.923 3.923c-1.195.297-2.479.22-3.656-.267zm5.08-.294L3.6 15.573c.26-.469.585-.906.975-1.296l.648-.649 5.109 5.108-.649.65c-.39.39-.827.714-1.296.973zm10.637-3.352c0 1.097-.427 2.127-1.202 2.903l-.493.492-4.267-4.267c-1.17-1.17-1.17-3.075 0-4.245l1.272-1.272 3.488 3.487c.775.776 1.202 1.806 1.202 2.902zm-4.635-8.32c-.873-.872-.872-2.292 0-3.165.423-.423.985-.656 1.583-.656s1.16.233 1.583.656l.883.883c.873.872.873 2.293 0 3.166-.423.422-.985.655-1.583.655s-1.16-.232-1.583-.655l-.883-.884z" transform="translate(-1268 -2757) translate(0 2537) translate(0 208) translate(1186 12) translate(82)"/>
                        </g>
                    </g>
                </g>
            </g>
        </g>
    </g>
</svg>
