<svg xmlns="http://www.w3.org/2000/svg" width="16" height="16" viewBox="0 0 16 16">
    <g fill="none" fill-rule="evenodd">
        <g fill="#0697DB">
            <g>
                <g>
                    <path d="M12.667 7.333h-7.91l2.422-2.906c.236-.283.197-.704-.086-.939-.283-.236-.703-.197-.938.085l-3.334 4c-.026.032-.039.068-.058.103-.016.028-.036.052-.048.083-.03.076-.048.157-.048.238v.006c0 .081.018.162.048.238.012.031.032.055.048.083.019.035.032.071.058.103l3.334 4c.132.158.321.24.512.24.15 0 .302-.051.426-.155.283-.235.322-.656.086-.939L4.757 8.667h7.91c.368 0 .666-.299.666-.667 0-.368-.298-.667-.666-.667" transform="translate(-26 -184) translate(16 176) translate(10 8)"/>
                </g>
            </g>
        </g>
    </g>
</svg>
