<svg xmlns="http://www.w3.org/2000/svg" width="24" height="24" viewBox="0 0 24 24">
    <g fill="none" fill-rule="evenodd">
        <g fill="#0697DB">
            <g>
                <g>
                    <path d="M9 13c1.103 0 2 .897 2 2v4c0 1.103-.897 2-2 2H5c-1.103 0-2-.897-2-2v-4c0-1.103.897-2 2-2zm10 0c1.103 0 2 .897 2 2v4c0 1.103-.897 2-2 2h-4c-1.103 0-2-.897-2-2v-4c0-1.103.897-2 2-2zM9 3c1.103 0 2 .897 2 2v4c0 1.103-.897 2-2 2H5c-1.103 0-2-.897-2-2V5c0-1.103.897-2 2-2zm10 0c1.103 0 2 .897 2 2v4c0 1.103-.897 2-2 2h-4c-1.103 0-2-.897-2-2V5c0-1.103.897-2 2-2z" transform="translate(-1312 -369) translate(400 365) translate(912 4)"/>
                </g>
            </g>
        </g>
    </g>
</svg>
