<svg xmlns="http://www.w3.org/2000/svg" width="24" height="24" viewBox="0 0 24 24">
    <g fill="none" fill-rule="evenodd">
        <g fill="#FF3D71">
            <g>
                <g> 
                    <g>
                        <g>
                            <path d="M12 21c-.266 0-.52-.105-.708-.294l-7.767-7.78c-2.036-2.04-2.036-5.359 0-7.399C4.508 4.543 5.821 4 7.22 4s2.712.543 3.695 1.527L12 6.614l1.084-1.086C14.068 4.543 15.381 4 16.78 4s2.712.543 3.695 1.527c2.036 2.04 2.036 5.359.001 7.399l-7.768 7.781c-.188.188-.442.293-.708.293" transform="translate(-280 -637) translate(16 579) translate(0 58) translate(47) translate(217)"/>
                        </g>
                    </g>
                </g>
            </g>
        </g>
    </g>
</svg>
