<svg xmlns="http://www.w3.org/2000/svg" width="32" height="32" viewBox="0 0 32 32">
    <g fill="none" fill-rule="evenodd">
        <g fill="#383838">
            <g>
                <g>
                    <path d="M9.626 8c-1.152 0-2.232.445-3.04 1.255-1.677 1.68-1.677 4.414.002 6.097L16 24.78l9.413-9.428c1.679-1.683 1.679-4.417 0-6.097-1.616-1.62-4.464-1.618-6.08 0l-2.39 2.393c-.5.503-1.386.503-1.887 0l-2.39-2.395C11.858 8.445 10.78 8 9.626 8M16 28c-.354 0-.694-.14-.943-.392L4.7 17.235c-2.715-2.72-2.715-7.146 0-9.866 1.312-1.312 3.06-2.036 4.926-2.036s3.616.724 4.927 2.036L16 8.82l1.446-1.448c1.312-1.314 3.062-2.038 4.928-2.038 1.864 0 3.615.724 4.926 2.036 2.716 2.72 2.716 7.146 0 9.866L16.945 27.609c-.251.251-.59.391-.944.391" transform="translate(-192 -16) translate(152 16) translate(40)"/>
                </g>
            </g>
        </g>
    </g>
</svg>
