<svg xmlns="http://www.w3.org/2000/svg" width="20" height="20" viewBox="0 0 20 20">
    <g fill="none" fill-rule="evenodd">
        <g fill="#FFF">
            <g>
                <g>
                    <path d="M4.167 13.333c1.378 0 2.5 1.122 2.5 2.5 0 1.379-1.122 2.5-2.5 2.5-1.379 0-2.5-1.121-2.5-2.5 0-1.378 1.121-2.5 2.5-2.5zm5.833 0c1.378 0 2.5 1.122 2.5 2.5 0 1.379-1.122 2.5-2.5 2.5s-2.5-1.121-2.5-2.5c0-1.378 1.122-2.5 2.5-2.5zm5.833 0c1.379 0 2.5 1.122 2.5 2.5 0 1.379-1.121 2.5-2.5 2.5-1.378 0-2.5-1.121-2.5-2.5 0-1.378 1.122-2.5 2.5-2.5zM4.167 7.5c1.378 0 2.5 1.122 2.5 2.5s-1.122 2.5-2.5 2.5c-1.379 0-2.5-1.122-2.5-2.5s1.121-2.5 2.5-2.5zM10 7.5c1.378 0 2.5 1.122 2.5 2.5s-1.122 2.5-2.5 2.5-2.5-1.122-2.5-2.5S8.622 7.5 10 7.5zm5.833 0c1.379 0 2.5 1.122 2.5 2.5s-1.121 2.5-2.5 2.5c-1.378 0-2.5-1.122-2.5-2.5s1.122-2.5 2.5-2.5zM4.167 1.667c1.378 0 2.5 1.121 2.5 2.5 0 1.378-1.122 2.5-2.5 2.5-1.379 0-2.5-1.122-2.5-2.5 0-1.379 1.121-2.5 2.5-2.5zm5.833 0c1.378 0 2.5 1.121 2.5 2.5 0 1.378-1.122 2.5-2.5 2.5s-2.5-1.122-2.5-2.5c0-1.379 1.122-2.5 2.5-2.5zm5.833 0c1.379 0 2.5 1.121 2.5 2.5 0 1.378-1.121 2.5-2.5 2.5-1.378 0-2.5-1.122-2.5-2.5 0-1.379 1.122-2.5 2.5-2.5z" transform="translate(-28 -74) translate(16 64) translate(12 10)"/>
                </g>
            </g>
        </g>
    </g>
</svg>
