<svg xmlns="http://www.w3.org/2000/svg" width="24" height="24" viewBox="0 0 24 24">
    <g fill="none" fill-rule="evenodd">
        <g fill="#383838">
            <g>
                <g>
                    <g>
                        <path d="M4 16c.552 0 1 .448 1 1s-.448 1-1 1-1-.448-1-1 .448-1 1-1zm16.064 0c.515 0 .936.421.936.936v.128c0 .515-.42.936-.936.936H7.936C7.42 18 7 17.579 7 17.064v-.128c0-.515.42-.936.936-.936zM4 11c.552 0 1 .448 1 1s-.448 1-1 1-1-.448-1-1 .448-1 1-1zm16.064 0c.515 0 .936.421.936.936v.128c0 .515-.42.936-.936.936H7.936C7.42 13 7 12.579 7 12.064v-.128c0-.515.42-.936.936-.936zM4 6c.552 0 1 .448 1 1s-.448 1-1 1-1-.448-1-1 .448-1 1-1zm16.064 0c.515 0 .936.421.936.936v.128c0 .515-.42.936-.936.936H7.936C7.42 8 7 7.579 7 7.064v-.128C7 6.421 7.42 6 7.936 6z" transform="translate(-1352 -369) translate(400 365) translate(912 4) translate(40)"/>
                    </g>
                </g>
            </g>
        </g>
    </g>
</svg>
