<svg xmlns="http://www.w3.org/2000/svg" width="16" height="16" viewBox="0 0 16 16">
    <g fill="none" fill-rule="evenodd">
        <g fill="#FFF">
            <g>
                <g>
                    <g>
                        <path d="M13.535 8.95c-.35-.11-.725.083-.837.434-.625 1.964-2.463 3.283-4.575 3.283-2.642 0-4.79-2.094-4.79-4.667s2.148-4.667 4.79-4.667c1.152 0 2.238.402 3.096 1.114l-1.444-.238c-.366-.067-.706.186-.766.548-.06.364.186.707.55.766l2.83.468c.036.006.074.009.11.009.078 0 .156-.014.228-.04.024-.01.044-.027.068-.04.044-.023.09-.043.128-.075.024-.02.04-.047.06-.07.032-.032.065-.064.088-.104.017-.028.024-.062.036-.094.016-.04.038-.076.046-.12l.502-2.666c.068-.362-.17-.712-.532-.78-.36-.064-.71.17-.778.532l-.182.96C11.054 2.544 9.633 2 8.123 2 4.747 2 2 4.69 2 8s2.747 6 6.123 6c2.694 0 5.044-1.693 5.846-4.212.111-.35-.083-.725-.434-.837" transform="translate(-262 -859) translate(16 468) translate(108 383) translate(138 8)"/>
                    </g>
                </g>
            </g>
        </g>
    </g>
</svg>
