<svg xmlns="http://www.w3.org/2000/svg" width="64" height="64" viewBox="0 0 64 64">
    <g fill="none" fill-rule="evenodd">
        <g fill="#42BA30">
            <g>
                <path d="M50.667 48H13.333c-1.469 0-2.666-1.195-2.666-2.667v-26l19.733 14.8c.475.358 1.037.534 1.6.534.563 0 1.125-.176 1.6-.534l19.733-14.8v26c0 1.472-1.197 2.667-2.666 2.667zm-1.779-32L32 28.667 15.112 16h33.776zm1.779-5.333H13.333c-4.41 0-8 3.589-8 8v26.666c0 4.411 3.59 8 8 8h37.334c4.41 0 8-3.589 8-8V18.667c0-4.411-3.59-8-8-8z" transform="translate(-112 -40) translate(112 40)"/>
            </g>
        </g>
    </g>
</svg>
