<svg xmlns="http://www.w3.org/2000/svg" width="64" height="64" viewBox="0 0 64 64">
    <g fill="none" fill-rule="evenodd">
        <g fill="#42BA30">
            <g>
                <path d="M31.923 5.334c2.12.032 4.28.245 6.349.74 1.43.348 2.312 1.788 1.965 3.22-.344 1.429-1.792 2.309-3.216 1.968-1.656-.4-3.413-.568-5.082-.595-5.699.016-11.051 2.25-15.067 6.29-4.019 4.04-6.221 9.406-6.205 15.105.016 5.698 2.25 11.048 6.29 15.066 4.027 4.003 9.366 6.206 15.043 6.206h.061c5.699-.016 11.051-2.251 15.067-6.291 4.019-4.043 6.221-9.405 6.205-15.104-.002-1.472 1.187-2.672 2.659-2.675 1.477 0 2.672 1.19 2.675 2.659.021 7.123-2.734 13.83-7.758 18.88-5.021 5.05-11.709 7.843-18.832 7.864H32c-7.096 0-13.77-2.752-18.803-7.757-5.05-5.022-7.842-11.71-7.864-18.832-.021-7.126 2.734-13.83 7.758-18.88C18.112 8.147 24.8 5.355 31.923 5.334zM48.66 16.909c.971-1.101 2.654-1.218 3.763-.248 1.107.968 1.219 2.654.248 3.763L34.005 41.757c-.485.555-1.178.883-1.917.91H32c-.707 0-1.384-.28-1.885-.782l-8-8c-1.043-1.042-1.043-2.728 0-3.77 1.042-1.043 2.728-1.043 3.77 0l5.984 5.984z" transform="translate(-112 -40) translate(112 40)"/>
            </g>
        </g>
    </g>
</svg>
