<svg xmlns="http://www.w3.org/2000/svg" width="32" height="32" viewBox="0 0 32 32">
    <g fill="none" fill-rule="evenodd">
        <g fill-rule="nonzero">
            <g>
                <g transform="translate(-104 -114) translate(16 114) translate(88)">
                    <circle cx="15.886" cy="15.886" r="15.886" fill="#DC4E41"/>
                    <g>
                        <path fill="#DC4E41" d="M.15 6.685c-.056 2.734 1.827 5.342 4.416 6.193 2.44.82 5.439.206 7.062-1.883 1.185-1.464 1.455-3.415 1.326-5.238-2.089-.019-4.178-.013-6.264-.01-.003.745 0 1.486.003 2.23 1.251.035 2.502.019 3.753.044-.316 1.082-1.035 2.09-2.127 2.48-2.107.929-4.797-.285-5.46-2.496-.8-2.117.51-4.672 2.674-5.288 1.342-.472 2.724.06 3.872.757.582-.544 1.126-1.126 1.66-1.714C9.761.669 8.085 0 6.362.146 2.98.186.022 3.308.15 6.686zM17.02 3.87c-.006.623-.013 1.249-.016 1.87-.625.007-1.248.01-1.87.013v1.864c.622.003 1.248.006 1.87.013.006.622.006 1.244.013 1.87.619 0 1.241-.003 1.864 0 .003-.626.006-1.248.012-1.873l1.87-.01V5.753c-.622-.003-1.247-.006-1.87-.012l-.012-1.87H17.02z" transform="translate(5.38 9.912)"/>
                        <g fill="#FFF">
                            <path d="M.15 6.685C.022 3.308 2.98.187 6.361.146 8.085 0 9.761.668 11.065 1.76c-.535.588-1.079 1.17-1.66 1.714-1.148-.698-2.53-1.23-3.872-.757-2.165.616-3.475 3.171-2.674 5.288.663 2.211 3.352 3.425 5.46 2.496 1.092-.391 1.811-1.398 2.127-2.48-1.251-.025-2.502-.01-3.753-.044-.003-.744-.006-1.486-.003-2.23 2.086-.003 4.175-.01 6.264.01.128 1.823-.14 3.774-1.326 5.238-1.623 2.089-4.622 2.702-7.062 1.883-2.59-.85-4.472-3.46-4.416-6.193zM17.02 3.87h1.86c.004.623.01 1.249.013 1.87.622.007 1.248.01 1.87.013v1.864l-1.87.01c-.006.625-.009 1.247-.012 1.873-.623-.003-1.245 0-1.864 0-.006-.626-.006-1.248-.013-1.87-.622-.007-1.248-.01-1.87-.013V5.753c.622-.003 1.245-.006 1.87-.013.003-.621.01-1.247.016-1.87z" transform="translate(5.38 9.912)"/>
                        </g>
                    </g>
                </g>
            </g>
        </g>
    </g>
</svg>
