<svg xmlns="http://www.w3.org/2000/svg" xmlns:xlink="http://www.w3.org/1999/xlink" width="176" height="28" viewBox="0 0 176 28">
    <defs>
        <path id="6ug6g91x6a" d="M0.305 0.359L19.948 0.359 19.948 19.574 0.305 19.574z"/>
    </defs>
    <g fill="none" fill-rule="evenodd">
        <g>
            <g>
                <path fill="#FB8500" d="M36.019 7.367L40.5 7.367 40.5 20.166 49.797 7.367 54.028 7.367 54.028 27.014 49.574 27.014 49.574 14.244 40.277 27.014 36.019 27.014zM72.009 11.072L62.628 11.072 62.657 27.014 58.121 27.014 58.121 7.367 72.037 7.367z" transform="translate(-32 -59) translate(32 59)"/>
                <g>
                    <path fill="#FB8500" d="M86.287 16.651c.703-.576 1.055-1.395 1.055-2.457 0-1.08-.352-1.908-1.055-2.484-.702-.577-1.729-.865-3.08-.865h-3.661v6.67h3.662c1.35 0 2.377-.288 3.08-.864m1.65-8.579c1.267.568 2.243 1.373 2.927 2.416.684 1.043 1.027 2.279 1.027 3.706 0 1.41-.343 2.64-1.027 3.692-.684 1.053-1.66 1.858-2.927 2.416-1.267.559-2.76.837-4.48.837h-3.912v5.298H75.05V7.221h8.407c1.72 0 3.213.285 4.48.851M105.625 18.943l-3.08-7.357-3.079 7.357h6.159zm1.414 3.377h-9.016l-1.72 4.117h-4.605l8.655-19.215h4.44l8.683 19.215h-4.716l-1.72-4.117z" transform="translate(-32 -59) translate(32 59)"/>
                    <path fill="#0697DB" d="M126.445 22.031c.712-.74 1.068-1.733 1.068-2.978s-.356-2.237-1.068-2.979c-.712-.74-1.623-1.111-2.732-1.111-1.11 0-2.021.37-2.733 1.111-.712.742-1.068 1.734-1.068 2.979s.356 2.237 1.068 2.978c.712.742 1.623 1.112 2.733 1.112s2.02-.37 2.732-1.112m1.804-9.635c1.137.631 2.03 1.52 2.677 2.663.647 1.144.97 2.475.97 3.994 0 1.52-.323 2.85-.97 3.994-.648 1.144-1.54 2.031-2.677 2.662-1.137.632-2.4.948-3.787.948-2.053 0-3.616-.64-4.688-1.921v1.701h-4.135V6.068h4.328v7.165c1.092-1.189 2.59-1.784 4.495-1.784 1.387 0 2.65.316 3.787.947M147.6 22.196c.924-.522 1.65-1.249 2.177-2.182.527-.933.791-1.995.791-3.185 0-1.189-.264-2.25-.791-3.184-.527-.933-1.253-1.66-2.177-2.182-.926-.522-1.961-.783-3.108-.783s-2.183.26-3.107.783c-.925.521-1.65 1.249-2.178 2.182-.527.934-.79 1.995-.79 3.184 0 1.19.263 2.252.79 3.185.527.933 1.253 1.66 2.178 2.182.924.522 1.96.783 3.107.783 1.147 0 2.182-.261 3.108-.783m-8.56 3.28c-1.618-.86-2.884-2.044-3.8-3.555-.916-1.51-1.374-3.206-1.374-5.092 0-1.884.458-3.582 1.374-5.092.916-1.51 2.182-2.694 3.8-3.555 1.619-.86 3.436-1.29 5.452-1.29s3.829.43 5.438 1.29c1.609.86 2.876 2.045 3.8 3.555.925 1.51 1.388 3.208 1.388 5.092 0 1.886-.463 3.583-1.387 5.092-.925 1.51-2.192 2.696-3.801 3.556-1.61.86-3.422 1.29-5.438 1.29-2.016 0-3.833-.43-5.451-1.29" transform="translate(-32 -59) translate(32 59)"/>
                    <g transform="translate(-32 -59) translate(32 59) translate(155.284 6.863)">
                        <mask id="4jrji1wm0b" fill="#fff">
                            <use xlink:href="#6ug6g91x6a"/>
                        </mask>
                        <path fill="#0697DB" d="M14.759 19.574L10.071 12.904 5.466 19.574 0.305 19.574 7.491 9.802 0.666 0.359 5.771 0.359 10.238 6.59 14.621 0.359 19.476 0.359 12.707 9.637 19.948 19.574z" mask="url(#4jrji1wm0b)"/>
                    </g>
                    <path fill="#EBB044" d="M24.27 23.739v-3.13c-.007-.014-.013-.027-.018-.042v-4.091h-4.184c-.346-.152-.51-.588-.289-.94.568-.901.698-2.016-.356-2.63-.854-.497-2.026-.177-2.5.685-.39.709-.07 1.333.296 1.967.201.35.034.77-.303.919h-4.132v4.048c.104.412.596.634.986.394.912-.563 2.04-.69 2.659.352.502.846.13 1.986-.741 2.455-.717.385-1.292.074-1.94-.274-.429-.23-.869-.055-.963.395v3.977h2.9v.009h6.231v-.01h2.337v-4.044c.004-.014.01-.027.017-.04" transform="translate(-32 -59) translate(32 59)"/>
                    <path fill="#474EBB" d="M16.431 21.263c-.62-1.042-1.747-.914-2.658-.352-.439.271-1.007-.04-1.007-.552v-3.773H8.7c-.367.13-.558.57-.347.935.366.634.686 1.258.296 1.967-.473.863-1.645 1.183-2.5.686-1.053-.613-.924-1.728-.356-2.63.231-.368.039-.827-.34-.958H1.374v-.031h-.058v-.069H1.3v11.347h11.467V24.01c0-.5.546-.813.985-.565.641.362 1.272.678 1.989.292.871-.468 1.194-1.629.691-2.474" transform="translate(-32 -59) translate(32 59)"/>
                    <path fill="#D34E4E" d="M25.593 14.49l3.691-10.497-.053-.018L18.454.265l-1.286 3.658c-.17.483-.81.593-1.134.195-.674-.828-1.696-1.316-2.628-.533-.755.635-.836 1.836-.168 2.562.548.597 1.25.504 1.975.37.497-.09.908.383.742.855l-1.269 3.61 3.796 1.306c.413.031.774-.336.693-.77-.135-.717-.23-1.41.373-1.954.734-.66 1.947-.582 2.59.165.791.922.299 1.933-.537 2.6-.358.286-.308.82.051 1.05l2.29.789 1.52.523.054.02.077-.22z" transform="translate(-32 -59) translate(32 59)"/>
                    <path fill="#7FC5A3" d="M12.277 10.945c-.148-.436-.606-.558-1.003-.279-.602.423-1.135.8-1.893.502-.922-.361-1.43-1.45-1.033-2.349.488-1.108 1.623-1.115 2.596-.665.417.193.878-.086.93-.508l-.29-2.38-.193-1.583-.007-.055-1.295.155L.49 4.93v-.002L0 4.988l.007.055.178 1.462.31 2.544c-.003.015-.008.03-.012.044l.38 3.108.022.038.49 4.013.056-.006.005.03 1.476-.176 2.572-.308c.392.085.639.518.453.911-.454.963-.447 2.086.674 2.569.908.392 2.033-.065 2.399-.978.3-.75-.093-1.332-.533-1.918-.254-.337-.117-.796.23-.969l4.057-.485-.202-1.65h-.001l-.284-2.327z" transform="translate(-32 -59) translate(32 59)"/>
                </g>
            </g>
        </g>
    </g>
</svg>
