<svg xmlns="http://www.w3.org/2000/svg" width="24" height="24" viewBox="0 0 24 24">
    <g fill="none" fill-rule="evenodd">
        <g>
            <g>
                <g>
                    <g>
                        <path d="M0 0H24V24H0z" transform="translate(-32 -2223) translate(16 1879) translate(0 328) translate(16 16)"/>
                        <path fill="#EBB044" d="M20.143 20.22v-2.661l-.015-.036V14.045h-3.434c-.284-.129-.42-.5-.238-.798.467-.767.573-1.715-.292-2.236-.7-.423-1.663-.151-2.052.581-.32.603-.058 1.134.243 1.673.165.298.028.655-.25.781h-3.39v3.441c.084.35.488.54.809.335.748-.478 1.673-.587 2.182.3.413.718.107 1.688-.608 2.086-.589.327-1.06.064-1.593-.233-.352-.195-.713-.046-.79.336v3.381h2.38v.007h5.116v-.008h1.918v-3.437l.014-.035" transform="translate(-32 -2223) translate(16 1879) translate(0 328) translate(16 16)"/>
                        <path fill="#474EBB" d="M13.515 18.038c-.519-.898-1.461-.787-2.224-.303-.366.233-.842-.035-.842-.476v-3.252H7.047c-.307.113-.466.492-.29.806.306.546.573 1.085.248 1.696-.396.743-1.377 1.019-2.091.59-.882-.527-.774-1.488-.299-2.266.194-.317.033-.713-.284-.826H.92l-.001-.027H.871v-.058H.857V23.699h9.592v-3.293c0-.43.457-.701.824-.487.536.311 1.064.584 1.664.251.729-.403.999-1.404.578-2.132" transform="translate(-32 -2223) translate(16 1879) translate(0 328) translate(16 16)"/>
                        <path fill="#D34E4E" d="M21.028 12.4L24 3.355l-.043-.016L15.28.144l-1.036 3.152c-.137.415-.652.51-.913.167-.543-.713-1.366-1.133-2.116-.459-.608.547-.673 1.582-.136 2.207.442.514 1.007.434 1.591.32.4-.08.731.328.598.735l-1.022 3.11 3.056 1.126c.333.027.624-.29.558-.663-.109-.618-.185-1.216.3-1.684.591-.57 1.568-.501 2.085.142.638.794.241 1.666-.432 2.24-.288.247-.248.706.042.905l1.843.68 1.225.45.043.016.062-.189z" transform="translate(-32 -2223) translate(16 1879) translate(0 328) translate(16 16)"/>
                        <path fill="#7FC5A3" d="M10.306 9.197c-.124-.38-.509-.487-.842-.243-.505.37-.953.698-1.59.438-.774-.315-1.2-1.265-.867-2.05.41-.967 1.363-.974 2.18-.581.35.168.737-.075.781-.443L9.724 4.24l-.162-1.38-.006-.05-1.087.136L.412 3.948v-.001L0 3.997l.005.05.15 1.275.261 2.22-.01.039.318 2.712.019.033.411 3.504.047-.006.004.027 1.24-.154 2.158-.269c.33.075.537.452.381.795-.381.84-.375 1.82.565 2.242.763.342 1.707-.056 2.014-.853.252-.655-.078-1.163-.447-1.674-.213-.295-.099-.695.193-.846l3.405-.423-.169-1.44-.24-2.032z" transform="translate(-32 -2223) translate(16 1879) translate(0 328) translate(16 16)"/>
                    </g>
                </g>
            </g>
        </g>
    </g>
</svg>
