<svg xmlns="http://www.w3.org/2000/svg" width="20" height="20" viewBox="0 0 20 20">
    <g fill="none" fill-rule="evenodd">
        <g fill="#0697DB">
            <g>
                <g>
                    <g>
                        <g>
                            <path d="M15.833 15H4.167c-.46 0-.834-.373-.834-.833V6.042L9.5 10.667c.148.111.324.166.5.166s.352-.055.5-.166l6.167-4.625v8.125c0 .46-.375.833-.834.833zm-.556-10L10 8.958 4.723 5h10.555zm.556-1.667H4.167c-1.379 0-2.5 1.122-2.5 2.5v8.334c0 1.378 1.121 2.5 2.5 2.5h11.666c1.379 0 2.5-1.122 2.5-2.5V5.833c0-1.378-1.121-2.5-2.5-2.5z" transform="translate(-16 -448) translate(16 356) translate(0 64) translate(0 27) translate(0 1)"/>
                        </g>
                    </g>
                </g>
            </g>
        </g>
    </g>
</svg>
