<svg xmlns="http://www.w3.org/2000/svg" width="20" height="20" viewBox="0 0 20 20">
    <g fill="none" fill-rule="evenodd">
        <g fill="#0697DB">
            <g>
                <g>
                    <path d="M14.5 18.333c-7.077 0-12.833-5.756-12.833-12.833 0-2.114 1.72-3.833 3.833-3.833.217 0 .43.018.638.054.203.032.407.084.604.152.272.095.475.322.54.602l1.141 4.97c.063.273-.016.56-.21.763-.115.119-.117.121-1.15.662.836 1.812 2.29 3.26 4.066 4.07.54-1.035.544-1.038.663-1.152.204-.195.491-.27.764-.21l4.97 1.14c.279.065.506.268.6.539.069.196.12.4.154.609.035.206.053.419.053.634 0 2.114-1.719 3.833-3.833 3.833" transform="translate(-16 -420) translate(16 356) translate(0 64)"/>
                </g>
            </g>
        </g>
    </g>
</svg>
