<svg xmlns="http://www.w3.org/2000/svg" width="24" height="24" viewBox="0 0 24 24">
    <g fill="none" fill-rule="evenodd">
        <g fill="#0697DB">
            <g>
                <g>
                    <path d="M12 10c.552 0 1 .448 1 1v5c0 .552-.448 1-1 1s-1-.448-1-1v-5c0-.552.448-1 1-1zm0-3c.552 0 1 .448 1 1s-.448 1-1 1-1-.448-1-1 .448-1 1-1zm0 13c-4.411 0-8-3.589-8-8s3.589-8 8-8 8 3.589 8 8-3.589 8-8 8m0-18C6.477 2 2 6.477 2 12s4.477 10 10 10c5.522 0 10-4.477 10-10S17.522 2 12 2" transform="translate(-16 -1239) translate(16 950) translate(0 289)"/>
                </g>
            </g>
        </g>
    </g>
</svg>
