<svg xmlns="http://www.w3.org/2000/svg" width="24" height="24" viewBox="0 0 24 24">
    <g fill="none" fill-rule="evenodd">
        <g fill="#0697DB">
            <g>
                <g>
                    <g>
                        <path d="M19 18c0 .552-.448 1-1 1s-1-.448-1-1 .448-1 1-1 1 .448 1 1zm-7-3H4l.016-10H15l-.016 10H12zm-5 3c0 .552-.448 1-1 1s-1-.448-1-1 .448-1 1-1 1 .448 1 1zm13-5.52V15h-3v-4.919l3 2.399zm1.625-1.261L17 7.519V5c0-1.103-.813-2-1.813-2H3.812C2.813 3 2 3.897 2 5v10c0 .873.513 1.609 1.221 1.882C3.081 17.228 3 17.604 3 18c0 1.654 1.346 3 3 3s3-1.346 3-3c0-.353-.072-.686-.185-1h6.37c-.113.314-.185.647-.185 1 0 1.654 1.346 3 3 3s3-1.346 3-3c0-.353-.072-.686-.185-1H21c.553 0 1-.447 1-1v-4c0-.304-.138-.591-.375-.781z" transform="translate(-16 -1295) translate(16 950) translate(0 289) translate(0 56)"/>
                    </g>
                </g>
            </g>
        </g>
    </g>
</svg>
