<svg width="35" height="35" viewBox="0 0 35 35" fill="none" xmlns="http://www.w3.org/2000/svg">
<rect width="35" height="35" rx="17.5" fill="#0697DB"/>
<path fill-rule="evenodd" clip-rule="evenodd" d="M17.5 16.5C16.7247 16.5 16.0938 15.826 16.0938 15C16.0938 14.172 16.7247 13.5 17.5 13.5C18.2753 13.5 18.9062 14.172 18.9062 15C18.9062 15.826 18.2753 16.5 17.5 16.5ZM17.5 11.5C15.6906 11.5 14.2188 13.07 14.2188 15C14.2188 16.93 15.6906 18.5 17.5 18.5C19.3094 18.5 20.7812 16.93 20.7812 15C20.7812 13.07 19.3094 11.5 17.5 11.5ZM17.5 25.146C15.9297 23.562 11.875 19.115 11.875 15.422C11.875 12.157 14.3978 9.5 17.5 9.5C20.6022 9.5 23.125 12.157 23.125 15.422C23.125 19.115 19.0703 23.562 17.5 25.146ZM17.5 7.5C13.3647 7.5 10 11.053 10 15.422C10 20.897 16.6084 27.001 16.8897 27.258C17.0659 27.419 17.2825 27.5 17.5 27.5C17.7175 27.5 17.9341 27.419 18.1103 27.258C18.3916 27.001 25 20.897 25 15.422C25 11.053 21.6353 7.5 17.5 7.5Z" fill="white"/>
</svg>
