<svg xmlns="http://www.w3.org/2000/svg" width="16" height="16" viewBox="0 0 16 16">
    <g fill="none" fill-rule="evenodd">
        <g fill="#CCC">
            <g>
                <g>
                    <path d="M3.333 8.667h7.91l-2.422 2.906c-.236.283-.197.704.086.939.283.236.703.197.939-.085l3.333-4c.026-.032.039-.068.058-.103.016-.028.036-.052.048-.083.03-.076.048-.157.048-.238V8v-.003c0-.081-.018-.162-.048-.238-.012-.031-.032-.055-.048-.083-.019-.035-.032-.071-.058-.103l-3.333-4c-.133-.158-.322-.24-.513-.24-.15 0-.302.051-.426.155-.283.235-.322.656-.086.939l2.422 2.906h-7.91c-.368 0-.666.299-.666.667 0 .368.298.667.666.667" transform="translate(-260 -220) translate(64 219) translate(196 1)"/>
                </g>
            </g>
        </g>
    </g>
</svg>
